HIERARCHY
ROOT Hips
{
  OFFSET 7.333 -26.027 -164.856
  CHANNELS 6 Xposition Yposition Zposition Zrotation Xrotation Yrotation
  JOINT LeftUpLeg
  {
    OFFSET 10.092 0.000 0.000
    CHANNELS 3 Zrotation Xrotation Yrotation
    JOINT LeftLeg
    {
      OFFSET 0.000 -38.160 -0.000
    CHANNELS 3 Zrotation Xrotation Yrotation
      JOINT LeftFoot
      {
        OFFSET -0.000 -24.040 0.000
    CHANNELS 3 Zrotation Xrotation Yrotation
        End Site
        {
          OFFSET -0.000 0.000 12.945
        }
      }
    }
  }
  JOINT RightUpLeg
  {
    OFFSET -10.092 -0.000 0.000
    CHANNELS 3 Zrotation Xrotation Yrotation
    JOINT RightLeg
    {
      OFFSET 0.000 -33.046 0.000
    CHANNELS 3 Zrotation Xrotation Yrotation
      JOINT RightFoot
      {
        OFFSET 0.000 -22.031 -0.000
    CHANNELS 3 Zrotation Xrotation Yrotation
        End Site
        {
          OFFSET 0.000 -0.000 11.863
        }
      }
    }
  }
  JOINT Spine
  {
    OFFSET -0.000 16.511 0.000
    CHANNELS 3 Zrotation Xrotation Yrotation
    JOINT LeftShoulder
    {
      OFFSET 0 16.511 0
    CHANNELS 3 Zrotation Xrotation Yrotation
      JOINT LeftArm
      {
        OFFSET 16.337 0.000 0.000
    CHANNELS 3 Zrotation Xrotation Yrotation
        JOINT LeftForeArm
        {
          OFFSET 0.000 -24.030 0.000
    CHANNELS 3 Zrotation Xrotation Yrotation
          JOINT LeftHand
          {
            OFFSET 0.000 -17.629 -0.000
    CHANNELS 3 Zrotation Xrotation Yrotation
            End Site
            {
              OFFSET 0.000 -11.753 -0.000
            }
          }
        }
      }
    }
    JOINT RightShoulder
    {
      OFFSET 0 16.511 0
    CHANNELS 3 Zrotation Xrotation Yrotation
      JOINT RightArm
      {
        OFFSET -16.337 0.000 0.000
    CHANNELS 3 Zrotation Xrotation Yrotation
        JOINT RightForeArm
        {
          OFFSET -0.000 -19.534 0.000
    CHANNELS 3 Zrotation Xrotation Yrotation
          JOINT RightHand
          {
            OFFSET 0.000 -19.514 -0.000
    CHANNELS 3 Zrotation Xrotation Yrotation
            End Site
            {
              OFFSET 0.000 -13.010 -0.000
            }
          }
        }
      }
    }
    JOINT Neck
    {
      OFFSET -0.000 16.511 0.000
    CHANNELS 3 Zrotation Xrotation Yrotation
      JOINT Head
      {
        OFFSET -0.000 12.493 -0.000
    CHANNELS 3 Zrotation Xrotation Yrotation
        End Site
        {
          OFFSET -0.000 8.328 -0.000
        }
      }
    }
  }
}
MOTION
Frames: 19
Frame Time: 0.0333333
0 0 0 -3.454750e-01 4.311700e-02 -8.847081e+00 -3.841120e+00 1.221270e+01 8.137090e-01 8.938320e+00 -1.528340e+01 1.370030e+00 0 0 -1.000000e-06 1.519500e+00 1.112550e+01 -2.932760e-01 7.388270e+00 -8.028450e+00 1.249950e+00 0 0 1.000000e-06 2.000000e-06 0 -7.800000e-05 0 0 0 6.818000e+01 -2.758530e+01 -4.988220e+00 1.217080e+02 -1.572510e+01 1.460650e+02 0 0 -6.617445e-24 0 0 0 -6.445410e+01 -4.588630e+01 2.409740e+01 -1.172910e+02 -1.502550e+01 -1.645290e+02 0 -1.000000e-06 0 3.338780e-01 -1.120390e+00 6.531000e-03 0 0 -1.000000e-06 
0 0 0 -3.524440e-01 3.292500e-01 -8.759549e+00 -3.882910e+00 1.276180e+01 8.589680e-01 8.511360e+00 -1.666000e+01 1.357320e+00 0 0 0 1.115560e+00 1.202630e+01 -2.324810e-01 8.304350e+00 -1.027940e+01 1.691310e+00 0 0 1.654361e-24 2.000000e-06 0 4.500000e-05 0 0 0 6.913740e+01 -3.118880e+01 -5.906580e+00 1.258360e+02 -1.979330e+01 1.457650e+02 0 0 -6.617445e-24 0 0 0 -5.978820e+01 -4.539160e+01 2.768880e+01 -1.232200e+02 -1.810900e+01 -1.640390e+02 0 0 0 3.649260e-01 -2.655940e+00 1.691200e-02 0 0 1.000000e-06 
0 0 0 -1.631180e-01 -7.840090e-01 -8.676805e+00 -3.985608e+00 1.369210e+01 9.449487e-01 7.089430e+00 -1.560320e+01 8.662790e-01 0 0 7.577640e-07 4.823730e-01 1.266170e+01 -1.057470e-01 8.179910e+00 -8.423640e+00 1.276952e+00 -4.285198e-08 0 -6.548488e-07 1.257094e-06 3.610187e-08 -3.000000e-05 0 0 0 6.537086e+01 -3.138525e+01 -8.095802e+00 1.293350e+02 -2.187230e+01 1.461876e+02 -1.986385e-07 -1.952020e-08 -1.098606e-07 0 0 0 -5.826391e+01 -4.523936e+01 2.888120e+01 -1.242238e+02 -2.026096e+01 -1.614913e+02 -1.584430e-07 -3.214258e-08 -4.850272e-07 4.297840e-01 -1.976590e+00 1.482500e-02 0 0 7.574785e-07 
0 0 0 -2.505332e-01 -4.784210e-01 -8.634339e+00 -4.283281e+00 1.292571e+01 9.608525e-01 8.433980e+00 -1.446270e+01 1.064610e+00 0 0 NaN 8.808871e-01 1.185761e+01 -1.810364e-01 7.774987e+00 -7.374848e+00 1.116970e+00 -3.168729e-08 0 NaN 6.147788e-07 2.203089e-08 -1.052803e-06 0 0 0 6.536798e+01 -3.086817e+01 -7.881688e+00 1.272836e+02 -2.042319e+01 1.460580e+02 NaN -1.197136e-08 -7.209353e-08 0 0 0 -6.233036e+01 -4.449572e+01 2.541470e+01 -1.217095e+02 -1.681160e+01 -1.636866e+02 NaN 2.255363e-07 NaN 4.727634e-01 -1.460890e+00 1.205600e-02 0 0 -7.809053e-07 
0 0 0 -3.101511e-02 -9.886665e-01 -8.126909e+00 -4.703090e+00 1.407606e+01 1.145080e+00 8.605390e+00 -1.575347e+01 1.099336e+00 0 0 NaN 3.170593e-01 1.379003e+01 -7.539166e-02 8.517700e+00 -1.069116e+01 1.650045e+00 -2.082584e-08 0 NaN NaN 2.988970e-08 -9.198577e-05 0 0 0 6.387382e+01 -2.772110e+01 -7.160153e+00 1.243344e+02 -1.826760e+01 1.455025e+02 NaN -2.164242e-09 -5.519407e-08 0 0 0 -6.556700e+01 -4.214172e+01 2.232660e+01 -1.182786e+02 -9.923237e+00 -1.699033e+02 NaN 4.023383e-10 NaN 3.466613e-01 -1.454480e+00 8.798000e-03 0 0 NaN 
0 0 0 -2.122070e-01 -1.136580e+00 -7.879283e+00 -4.441420e+00 1.413610e+01 1.086490e+00 8.762880e+00 -1.493520e+01 1.150650e+00 0 0 1.005540e-07 9.291280e-01 1.439710e+01 -2.310510e-01 7.848690e+00 -1.100950e+01 1.683380e+00 NaN 0 -7.090937e-09 NaN NaN 3.000000e-05 0 0 0 6.627510e+01 -2.273570e+01 -3.742990e+00 1.170804e+02 -1.622311e+01 1.427132e+02 8.229279e-09 -4.641528e-08 NaN 0 0 0 -6.789790e+01 -3.403520e+01 1.869540e+01 -1.140713e+02 -2.586820e+00 1.722802e+02 -1.875308e-08 NaN -1.406275e-07 4.636010e-01 -1.518970e+00 1.229100e-02 0 0 NaN 
0 0 0 -4.631789e-02 -1.222360e+00 -8.033547e+00 -4.486000e+00 1.503050e+01 1.165580e+00 8.244140e+00 -1.685740e+01 1.136450e+00 0 0 NaN 9.420810e-01 1.447280e+01 -2.354800e-01 6.789260e+00 -1.052790e+01 1.415420e+00 4.240392e-08 0 1.393748e-08 1.277243e-07 NaN 1.800000e-05 0 0 0 6.517858e+01 -1.658200e+01 -1.302930e+00 1.088490e+02 -1.313200e+01 1.368961e+02 2.451170e-08 NaN NaN 0 0 0 -6.656750e+01 -2.794660e+01 1.774120e+01 -1.090461e+02 6.288100e+00 1.493444e+02 5.945006e-09 -2.568472e-09 NaN 3.762720e-01 -1.643820e+00 1.079500e-02 0 0 -1.705900e-07 
0 0 0 -3.443543e-01 -1.646333e+00 -8.435455e+00 -4.415070e+00 1.496250e+01 1.141330e+00 8.325381e+00 -1.502420e+01 1.056155e+00 0 0 NaN 1.482040e+00 1.557760e+01 -3.980920e-01 5.874120e+00 -1.189610e+01 1.513010e+00 NaN 0 -1.268181e-07 NaN 3.204978e-09 3.000000e-05 0 0 0 6.035278e+01 -8.429485e+00 1.986380e+00 1.018917e+02 -1.283270e+01 1.268525e+02 -1.238169e-08 -1.589534e-08 -5.063710e-08 0 0 0 -6.202638e+01 -2.147380e+01 1.774770e+01 -1.012968e+02 1.256320e+01 1.244562e+02 -1.970365e-08 -1.311215e-07 NaN 3.331070e-01 -1.670310e+00 9.711000e-03 0 0 NaN 
0 0 0 -1.167230e-01 -7.583460e-01 -9.207293e+00 -4.451925e+00 1.302510e+01 1.005078e+00 8.154770e+00 -1.246140e+01 8.250260e-01 0 0 1.034246e-07 1.794850e+00 1.390040e+01 -4.318728e-01 4.787090e+00 -1.057840e+01 1.203720e+00 NaN 0 NaN NaN 2.078439e-08 1.100000e-05 0 0 0 5.597710e+01 -4.267372e-01 6.929852e+00 9.159314e+01 -1.052802e+01 1.007412e+02 -2.865413e-08 -1.601040e-08 9.714727e-08 0 0 0 -5.898871e+01 -1.634160e+01 1.674624e+01 -8.736890e+01 1.799810e+01 8.506250e+01 -1.930027e-08 NaN 1.768336e-08 1.652130e-01 -1.307800e+00 3.771000e-03 0 0 NaN 
0 0 0 6.905151e-02 -4.777240e-01 NaN -4.892943e+00 1.318080e+01 1.118970e+00 8.522940e+00 -1.343030e+01 8.722730e-01 0 0 NaN 8.640790e-01 1.323590e+01 -1.981108e-01 6.016350e+00 -9.507247e+00 1.135680e+00 -1.188425e-08 0 NaN 9.683303e-08 2.158273e-08 -2.950784e-06 0 0 0 5.066820e+01 7.077220e+00 1.333137e+01 7.885354e+01 -1.398160e+01 6.532790e+01 -3.264443e-08 -1.494787e-07 NaN 0 0 0 -5.349753e+01 -1.304360e+01 1.715475e+01 -7.402370e+01 2.064120e+01 5.842720e+01 -2.561826e-08 NaN -2.561064e-07 7.371501e-03 -1.143930e+00 1.480000e-04 0 0 2.525257e-07 
0 0 0 1.766251e-01 -3.853562e-01 -9.667493e+00 -5.140573e+00 1.365678e+01 1.218050e+00 9.037220e+00 -1.418088e+01 9.901115e-01 0 0 NaN 1.654930e-01 1.304890e+01 -3.754896e-02 7.616785e+00 -8.902870e+00 1.217877e+00 -3.075626e-08 0 -2.567056e-10 3.285242e-07 NaN 1.000000e-06 0 0 0 4.324733e+01 1.383670e+01 2.215197e+01 6.662371e+01 -2.319820e+01 4.519617e+01 8.437461e-08 NaN -1.249832e-07 0 0 0 -4.794196e+01 -1.093629e+01 1.804410e+01 -6.386334e+01 2.147231e+01 4.445389e+01 9.169379e-08 -1.804866e-07 NaN -1.939242e-01 -1.000877e+00 -3.401000e-03 0 0 NaN 
0 0 0 -3.718000e-03 -7.845528e-01 -9.707322e+00 -5.194994e+00 1.444999e+01 1.299661e+00 9.467257e+00 -1.549332e+01 1.184710e+00 0 0 3.164720e-08 -4.088149e-01 1.252973e+01 8.867351e-02 9.492885e+00 -6.488707e+00 1.048692e+00 -3.962184e-08 0 -1.402792e-08 NaN 1.649393e-08 -5.499667e-05 0 0 0 3.923603e+01 1.912003e+01 2.947877e+01 5.421910e+01 -2.899970e+01 3.592588e+01 -2.336370e-08 NaN -6.345307e-08 0 0 0 -4.363072e+01 -8.673262e+00 1.800867e+01 -5.907109e+01 1.901374e+01 3.669465e+01 NaN NaN NaN -4.993883e-01 -1.121215e+00 -9.761488e-03 0 0 NaN 
0 0 0 -1.983040e-01 -9.670370e-01 NaN -4.885210e+00 1.537613e+01 1.298540e+00 9.655330e+00 -1.642450e+01 1.403320e+00 0 0 7.705950e-08 -2.388510e-01 1.335760e+01 5.516600e-02 1.040560e+01 -7.476120e+00 1.337283e+00 -9.489051e-08 0 2.583080e-08 NaN 2.474193e-08 3.000000e-06 0 0 0 3.817345e+01 2.035980e+01 3.138010e+01 4.284617e+01 -2.542770e+01 2.792461e+01 NaN 1.891791e-08 NaN 0 0 0 -4.173980e+01 -7.218404e+00 1.738555e+01 -5.486076e+01 1.748443e+01 3.133271e+01 NaN NaN -1.927032e-08 -1.249830e-01 -1.146180e+00 -2.495000e-03 0 0 -1.210327e-07 
0 0 0 1.250982e-01 -7.330930e-01 NaN -5.422828e+00 1.438280e+01 1.351410e+00 9.362500e+00 -1.430750e+01 1.016780e+00 0 0 NaN 4.968400e-02 1.277480e+01 -1.100100e-02 NaN -6.764480e+00 9.817883e-01 NaN 0 1.754386e-08 1.622977e-07 NaN 9.000000e-06 0 0 0 3.589826e+01 2.161003e+01 3.445820e+01 3.562186e+01 -2.629950e+01 2.298379e+01 1.888441e-08 -1.465462e-08 -1.380110e-07 0 0 0 -4.088000e+01 -7.092069e+00 1.766310e+01 -5.418669e+01 1.751411e+01 3.082690e+01 -2.104058e-08 1.348351e-08 -4.087525e-07 -2.783050e-01 -1.065574e+00 -5.167000e-03 0 0 NaN 
0 0 0 3.512300e-01 -7.277100e-01 -1.076425e+01 -5.539379e+00 1.450841e+01 1.389991e+00 8.979230e+00 -1.520170e+01 9.500600e-01 0 0 NaN -9.139178e-01 1.275120e+01 2.015302e-01 9.796720e+00 -7.106940e+00 1.110500e+00 NaN 0 8.278009e-09 NaN NaN -4.700000e-05 0 0 0 3.460812e+01 2.106091e+01 3.511247e+01 3.364776e+01 -2.538581e+01 2.147275e+01 -9.217313e-09 -3.388221e-08 NaN 0 0 0 -3.981154e+01 -6.921517e+00 1.794080e+01 -5.704508e+01 1.708715e+01 3.269201e+01 -8.493020e-09 3.860048e-09 NaN -4.931900e-01 -8.775195e-01 -7.535000e-03 0 0 NaN 
0 0 0 -1.473600e-02 -6.151680e-01 -1.134859e+01 -4.623441e+00 1.390410e+01 1.112550e+00 7.811110e+00 -1.350790e+01 7.777900e-01 0 0 1.977279e-07 1.787900e-02 1.337760e+01 -4.150000e-03 8.600920e+00 -9.407270e+00 1.419110e+00 -9.892846e-08 0 1.926782e-08 NaN 1.325448e-08 3.100000e-05 0 0 0 3.577420e+01 2.095759e+01 3.405220e+01 3.447642e+01 -2.544980e+01 2.213329e+01 -1.050380e-08 NaN NaN 0 0 0 -4.123990e+01 -8.041615e+00 1.854790e+01 -5.742720e+01 1.706875e+01 3.395741e+01 NaN -3.546611e-08 NaN -4.599760e-01 -1.071500e+00 -8.601000e-03 0 0 -2.293198e-07 
0 0 0 -7.398910e-01 2.595990e-01 -1.222711e+01 -3.115370e+00 1.346570e+01 7.261190e-01 7.566200e+00 -1.463890e+01 1.141029e+00 0 0 NaN 1.255440e+00 1.261170e+01 -2.741680e-01 9.054780e+00 -9.079120e+00 1.639350e+00 NaN 0 1.847292e-08 9.015320e-08 NaN -4.800000e-05 0 0 0 3.808330e+01 2.099506e+01 3.219135e+01 4.035662e+01 -2.754980e+01 2.713944e+01 -3.722437e-08 NaN 1.921428e-08 0 0 0 -4.308359e+01 -1.114470e+01 2.065520e+01 -5.916736e+01 2.141401e+01 3.900486e+01 -2.683598e-08 -4.579981e-08 -5.145550e-10 -1.912410e-01 -7.524130e-01 -2.666496e-03 0 0 NaN 
0 0 0 -9.792270e-01 1.008911e+00 -1.283780e+01 -2.159390e+00 1.167630e+01 4.372130e-01 7.367516e+00 -1.267780e+01 1.155870e+00 0 0 NaN 3.880300e+00 1.101279e+01 -7.420290e-01 4.478615e+00 -8.176661e+00 1.188896e+00 NaN 0 5.975493e-08 2.024893e-07 3.851422e-09 2.200000e-05 0 0 0 4.198887e+01 2.018949e+01 2.836565e+01 4.988778e+01 -2.729840e+01 3.520625e+01 -6.113990e-08 1.124749e-08 -6.243472e-08 0 0 0 -4.644920e+01 -1.382373e+01 2.118390e+01 -6.356148e+01 2.251513e+01 4.544981e+01 3.292100e-09 -2.509672e-07 -1.437247e-07 -2.150850e-01 -3.885830e-01 -1.458000e-03 0 0 NaN 
0 0 0 -1.465580e+00 3.320360e-01 -1.307850e+01 -1.788670e+00 1.295510e+01 4.011130e-01 7.867995e+00 -1.414690e+01 1.509820e+00 0 0 1.152768e-07 4.049880e+00 1.173950e+01 -8.253210e-01 5.337230e+00 -8.743080e+00 1.426250e+00 -1.755348e-08 0 NaN NaN 2.791061e-08 3.100000e-05 0 0 0 4.671904e+01 1.873224e+01 2.395149e+01 6.010069e+01 -2.606200e+01 4.460565e+01 NaN -1.260109e-08 -1.537517e-07 0 0 0 -4.832700e+01 -1.640060e+01 2.222528e+01 -7.208884e+01 2.135860e+01 5.619850e+01 -1.106363e-07 NaN NaN -6.492400e-02 -8.273600e-01 -9.370000e-04 0 0 -9.707523e-08 
